<svg t="1652704743052" class="icon" viewBox="0 0 1024 1024" version="1.1" xmlns="http://www.w3.org/2000/svg" p-id="2106" width="200" height="200"><path d="M482.675229 184.328899h238.499899v32.960755h-238.499899z" fill="#FFFFFF" opacity=".61" p-id="2107"></path><path d="M264.396752 220.713452h92.978169v32.960755H264.396752z" fill="#FFFFFF" opacity=".48" p-id="2108"></path><path d="M687.423316 847.223233c27.917759 17.02835 44.99143 39.783631 44.991429 64.796724 0 52.741327-75.908618 95.503786-169.554241 95.503786S393.306263 964.761284 393.306263 912.019957c0-26.360363 18.981274-50.23219 49.663617-67.532466" fill="#B6B6CF" p-id="2109"></path><path d="M562.856384 1024c-104.320788 0-186.034618-49.185686-186.034618-111.984163 0-31.700006 20.612832-60.783751 58.048008-81.886875l16.187851 28.712937c-26.615809 15.009504-41.275105 33.891896-41.275105 53.173938 0 42.8325 70.099285 79.023409 153.073864 79.023409 82.978699 0 153.073864-36.186788 153.073864-79.023409 0-18.120175-13.171942-36.137347-37.093209-50.726602l17.164313-28.140244c34.106141 20.802356 52.889651 48.810757 52.889651 78.866846 0.00412 62.798477-81.71383 111.984163-186.034619 111.984163z" fill="#6E6E96" p-id="2110"></path><path d="M801.500487 638.223209c40.360444 27.448068 64.63604 62.831438 64.636039 101.449083 0 87.284198-124.043679 158.022097-277.076342 158.022097-153.040903 0-277.088703-70.746139-277.088703-158.022097 0-10.90177 1.940564-21.552213 5.628049-31.844209" fill="#B6B6CF" p-id="2111"></path><path d="M589.064304 914.178886c-164.618368 0-293.56908-76.650235-293.56908-174.502474 0-12.615729 2.220731-25.198497 6.596271-37.406337l31.02431 11.120135a77.840942 77.840942 0 0 0-4.659826 26.286202c0 76.724396 119.342652 141.54172 260.608325 141.54172 141.257433 0 260.595965-64.817324 260.595965-141.54172 0-31.44868-20.394467-62.637794-57.425874-87.819811l18.532184-27.254423c46.334581 31.510481 71.850325 72.377697 71.850325 115.078354 0.00412 97.844-128.942472 174.498354-293.5526 174.498354z" fill="#6E6E96" p-id="2112"></path><path d="M808.393405 465.068006c41.765396 29.887164 66.490082 67.000974 66.490082 107.217214 0 98.824582-149.382259 178.931576-333.641118 178.931576-184.295939 0-333.682318-80.102874-333.682318-178.931576" fill="#B6B6CF" p-id="2113"></path><path d="M541.238249 767.697173c-196.355455 0-350.162695-85.833925-350.162695-195.411953h32.960754c0 88.058776 145.262165 162.451199 317.201941 162.451199 171.923295 0 317.16074-74.392423 317.16074-162.451199 0-42.292768-32.408662-74.359462-59.601284-93.818668l19.183159-26.805333c48.003219 34.353346 73.37888 76.061061 73.37888 120.619881 0 54.15864-37.793625 104.250746-106.413796 141.047309-65.369416 35.066123-151.920238 54.368765-243.707699 54.368764z" fill="#6E6E96" p-id="2114"></path><path d="M829.776694 396.171789c0 105.548576-175.63138 199.63505-399.080575 199.635049C207.255164 595.806838 26.123458 510.24896 26.123458 404.704504c0-39.594106 25.470423-76.357708 69.098102-106.862886" fill="#B6B6CF" p-id="2115"></path><path d="M430.696119 612.287216C194.589994 612.287216 9.643081 521.105408 9.643081 404.704504c0-43.924325 26.327403-85.545518 76.135223-120.368555l18.886512 27.015458C76.351528 331.14434 42.603835 363.408799 42.603835 404.704504c0 94.655047 177.724388 174.621957 388.092284 174.621957 104.147744 0 202.107106-20.752915 275.832074-58.435297 67.853833-34.678834 106.768124-80.135834 106.768124-124.719375h32.960754c0 119.165488-186.421907 216.115427-415.560952 216.115427z" fill="#6E6E96" p-id="2116"></path><path d="M77.496914 229.608736a460.189814 213.128359 0 1 0 920.379628 0 460.189814 213.128359 0 1 0-920.379628 0Z" fill="#B6B6CF" p-id="2117"></path><path d="M537.686728 459.217472c-267.291118 0-476.670191-100.855789-476.670191-229.608736S270.391489 0 537.686728 0c267.291118 0 476.670191 100.855789 476.670191 229.608736s-209.379073 229.608736-476.670191 229.608736z m0-426.256718C297.167982 32.960754 93.977291 123.013656 93.977291 229.608736s203.194811 196.647981 443.709437 196.647981c240.514626 0 443.709437-90.052901 443.709437-196.647981S778.201354 32.960754 537.686728 32.960754z" fill="#6E6E96" p-id="2118"></path><path d="M87.051413 303.642711c70.552495-55.592433 194.954623-92.500237 336.644666-92.500238" fill="#B6B6CF" p-id="2119"></path><path d="M87.059653 320.123088a16.476257 16.476257 0 0 1-10.209594-29.421594c76.316507-60.136897 205.979995-96.039398 346.84602-96.039398a16.480377 16.480377 0 0 1 0 32.960754c-133.713541 0-255.746614 33.257401-326.443313 88.965197a16.418576 16.418576 0 0 1-10.193113 3.535041z" fill="#6E6E96" p-id="2120"></path><path d="M218.025091 616.914082s198.057054 58.933829 387.713235 16.294973c87.139995-19.603409 172.500109-60.647788 236.069043-138.686495l-34.122621-34.126741S607.477006 682.3659 207.555931 572.2811l10.46916 44.632982z" fill="#6E6E96" opacity=".25" p-id="2121"></path><path d="M104.434091 291.084663l-40.60353 33.014316c-99.339594 99.335474 43.174468 265.741963 350.37694 271.530695 307.190112 5.792853 406.529706-158.174541 406.529706-158.17454l8.619237-32.610547c0 0.00824-573.269923 104.889361-724.922353-113.759924z m675.580104 163.299938c-181.411873 141.067909-490.052258 102.886995-622.492689 36.69356C25.093434 424.905326 101.257498 368.583637 101.265738 368.575397c34.50579 33.446926 95.046456 77.919224 190.542002 104.687476 109.388504 30.657622 308.512662 48.695395 488.255896-18.898872l-0.049441 0.0206z" fill="#6E6E96" opacity=".25" p-id="2122"></path><path d="M796.675856 541.021944s30.072568 99.792804-137.998438 151.734834c-110.51741 34.159702-278.71614 36.70592-440.656447-75.842696 0 0 163.036252 208.419091 514.21249 100.579742 0 0 219.139576-75.892137 109.578029-222.971264l-45.135634 46.499384z" fill="#6E6E96" opacity=".25" p-id="2123"></path><path d="M859.540255 705.281864l-29.425713-43.524676s-189.388375 170.81499-513.495594 42.848981l-3.568002 48.50999s28.84478 141.764205 271.135166 141.764205c311.549172 0 275.354143-189.5985 275.354143-189.5985z m-214.104821 145.369288c-228.158463 12.22432-271.493615-68.463607-271.493614-68.463607l-0.016481-0.016481c83.0199 31.172634 243.258608 62.955041 432.305016-43.590597 11.412661 29.363912 20.831197 102.343143-160.794921 112.070685z" fill="#6E6E96" opacity=".25" p-id="2124"></path><path d="M416.889683 857.321585l-20.707594 31.114952s-60.400583 88.516106 119.157247 115.247278c179.57019 26.727052 215.37381-84.396012 215.37381-84.396012V869.381101c0.00412-0.00412-121.686985 51.678343-313.823463-12.059516zM683.67403 931.141314s0 47.850775-125.835921 47.850776c-125.844161 0-114.485061-64.265231-114.48506-64.265231l-0.008241-0.016481c46.907274 19.871215 128.295617 39.911354 241.672372 16.080728l-1.34315 0.350208z" fill="#6E6E96" opacity=".25" p-id="2125"></path><path d="M1000.933652 226.551626c0-117.702854-206.029436-213.128359-460.189814-213.128359S80.549904 108.844652 80.549904 226.551626c0 25.981315 10.085991 50.862564 28.482212 73.877411 63.923263 115.78289 366.305225 138.702975 366.305225 138.702975 191.32482 11.663987 301.133573-14.107203 363.853769-50.409354 98.964665-39.083215 161.742542-97.217745 161.742542-162.171032zM312.564775 368.575397C171.187859 337.736491 196.720083 252.726585 340.873943 252.726585c144.14974 0 103.896418-39.725949 103.896418-39.725949-32.952514-50.68952-245.351616 36.413394-316.868213 67.614867a88.083496 88.083496 0 0 1-1.520315-15.862363c0-101.671567 177.971594-184.094054 397.510819-184.094054 204.158913 0 372.262881 71.294112 394.832758 163.040372-0.412009 164.69253-464.849641 155.694244-606.160635 124.875939z m606.37488-83.42779c3.530921-20.489229 0.997063-35.964303 0.090642-40.372804 1.528555 6.56331 2.369054 13.221383 2.369054 19.978337a87.848651 87.848651 0 0 1-2.459696 20.394467z" fill="#6E6E96" opacity=".25" p-id="2126"></path></svg>
